<svg width="24" xmlns="http://www.w3.org/2000/svg" height="24" fill="none"><g style="fill: rgb(0, 0, 0);"><path d="M12.000,0.297C5.370,0.297,0.000,5.670,0.000,12.297C0.000,17.600,3.438,22.097,8.205,23.682C8.805,23.795,9.025,23.424,9.025,23.105C9.025,22.820,9.015,22.065,9.010,21.065C5.672,21.789,4.968,19.455,4.968,19.455C4.422,18.070,3.633,17.700,3.633,17.700C2.546,16.956,3.717,16.971,3.717,16.971C4.922,17.055,5.555,18.207,5.555,18.207C6.625,20.042,8.364,19.512,9.050,19.205C9.158,18.429,9.467,17.900,9.810,17.600C7.145,17.300,4.344,16.268,4.344,11.670C4.344,10.360,4.809,9.290,5.579,8.450C5.444,8.147,5.039,6.927,5.684,5.274C5.684,5.274,6.689,4.952,8.984,6.504C9.944,6.237,10.964,6.105,11.984,6.099C13.004,6.105,14.024,6.237,14.984,6.504C17.264,4.952,18.269,5.274,18.269,5.274C18.914,6.927,18.509,8.147,18.389,8.450C19.154,9.290,19.619,10.360,19.619,11.670C19.619,16.280,16.814,17.295,14.144,17.590C14.564,17.950,14.954,18.686,14.954,19.810C14.954,21.416,14.939,22.706,14.939,23.096C14.939,23.411,15.149,23.786,15.764,23.666C20.565,22.092,24.000,17.592,24.000,12.297C24.000,5.670,18.627,0.297,12.000,0.297ZZ" style="fill: rgb(11, 227, 175); fill-opacity: 1;" class="fills"/></g></svg>