<svg width="24" xmlns="http://www.w3.org/2000/svg" height="24" fill="none"><g style="fill: rgb(0, 0, 0);"><path d="M20.447,20.452L16.893,20.452L16.893,14.883C16.893,13.555,16.866,11.846,15.041,11.846C13.188,11.846,12.905,13.291,12.905,14.785L12.905,20.452L9.351,20.452L9.351,9.000L12.765,9.000L12.765,10.561L12.811,10.561C13.288,9.661,14.448,8.711,16.181,8.711C19.782,8.711,20.448,11.081,20.448,14.166L20.447,20.452ZL20.447,20.452ZZM5.337,7.433C4.193,7.433,3.274,6.507,3.274,5.368C3.274,4.230,4.194,3.305,5.337,3.305C6.477,3.305,7.401,4.230,7.401,5.368C7.401,6.507,6.476,7.433,5.337,7.433ZZM7.119,20.452L3.555,20.452L3.555,9.000L7.119,9.000L7.119,20.452ZZM22.225,0.000L1.771,0.000C0.792,0.000,0.000,0.774,0.000,1.729L0.000,22.271C0.000,23.227,0.792,24.000,1.771,24.000L22.222,24.000C23.200,24.000,24.000,23.227,24.000,22.271L24.000,1.729C24.000,0.774,23.200,0.000,22.225,0.000ZL22.225,0.000ZZ" style="fill: rgb(11, 227, 175); fill-opacity: 1;" class="fills"/></g></svg>