<svg width="95" height="15" viewBox="0 0 95 15" fill="none" xmlns="http://www.w3.org/2000/svg">
<path d="M63.6108 14.2C63.0641 14.2 62.5508 14.1 62.0708 13.9C61.5908 13.6867 61.2041 13.3467 60.9108 12.88C60.6175 12.4133 60.4708 11.78 60.4708 10.98V1.96L63.2508 0.479996V10.2C63.2508 10.7867 63.3241 11.2267 63.4708 11.52C63.6308 11.8133 63.9308 11.96 64.3708 11.96C64.5041 11.96 64.6508 11.9467 64.8108 11.92C64.9841 11.8933 65.1641 11.8533 65.3508 11.8V13.9C65.0708 14.0067 64.7841 14.08 64.4908 14.12C64.2108 14.1733 63.9175 14.2 63.6108 14.2ZM58.7508 6.28V4.14H65.3508V6.28H58.7508Z" fill="#121212"/>
<path d="M48.3045 14V4.14H51.0445V6.42L50.6445 6.44C50.8178 5.81334 51.0712 5.32 51.4045 4.96C51.7512 4.58667 52.1445 4.32667 52.5845 4.18C53.0245 4.02 53.4645 3.94 53.9045 3.94C55.0378 3.94 55.9178 4.26 56.5445 4.9C57.1845 5.52667 57.5045 6.39334 57.5045 7.5V14H54.7445V8.52C54.7445 7.76 54.6045 7.20667 54.3245 6.86C54.0578 6.5 53.6312 6.32 53.0445 6.32C52.6045 6.32 52.2312 6.42667 51.9245 6.64C51.6312 6.85334 51.4112 7.18 51.2645 7.62C51.1178 8.06 51.0445 8.63334 51.0445 9.34V14H48.3045Z" fill="#121212"/>
<path d="M43.2454 14V4.14H45.9854V14H43.2454ZM43.2054 2.7V0.0599976H46.0654V2.7H43.2054Z" fill="#121212"/>
<path d="M30.3688 14L27.2888 4.14H30.2088L31.7488 9.78L33.3488 4.14H35.6888L37.2888 9.74L38.8488 4.14H41.7888L38.6888 14H36.2488L34.5288 8.06L32.8488 14H30.3688Z" fill="#121212"/>
<path d="M21.4583 14.2C20.4983 14.2 19.6383 13.98 18.8783 13.54C18.1183 13.1 17.5183 12.4933 17.0783 11.72C16.6516 10.9333 16.4383 10.0467 16.4383 9.06C16.4383 8.06 16.6516 7.17334 17.0783 6.4C17.5183 5.62667 18.1116 5.02667 18.8583 4.6C19.6183 4.16 20.485 3.94 21.4583 3.94C22.4183 3.94 23.2716 4.16 24.0183 4.6C24.7783 5.02667 25.3716 5.62667 25.7983 6.4C26.2383 7.17334 26.4583 8.06 26.4583 9.06C26.4583 10.0467 26.2383 10.9333 25.7983 11.72C25.3716 12.4933 24.7783 13.1 24.0183 13.54C23.2716 13.98 22.4183 14.2 21.4583 14.2ZM21.4583 11.8C21.9383 11.8 22.345 11.6933 22.6783 11.48C23.0116 11.2667 23.265 10.9533 23.4383 10.54C23.6116 10.1267 23.6983 9.63334 23.6983 9.06C23.6983 8.47334 23.6116 7.98 23.4383 7.58C23.265 7.18 23.0116 6.87334 22.6783 6.66C22.345 6.44667 21.9383 6.34 21.4583 6.34C20.9783 6.34 20.565 6.44667 20.2183 6.66C19.885 6.87334 19.625 7.18 19.4383 7.58C19.265 7.98 19.1783 8.47334 19.1783 9.06C19.1783 9.63334 19.265 10.1267 19.4383 10.54C19.625 10.9533 19.885 11.2667 20.2183 11.48C20.565 11.6933 20.9783 11.8 21.4583 11.8Z" fill="#121212"/>
<path d="M13.6337 14.2C12.9404 14.2 12.3604 13.9933 11.8937 13.58C11.4271 13.1533 11.1937 12.48 11.1937 11.56V0.0599976H13.9337V11.02C13.9337 11.26 13.9937 11.4333 14.1137 11.54C14.2337 11.6333 14.3871 11.68 14.5737 11.68C14.6937 11.68 14.8071 11.6667 14.9137 11.64C15.0204 11.6133 15.1337 11.5867 15.2537 11.56V13.9C14.9604 14.0067 14.6737 14.08 14.3937 14.12C14.1137 14.1733 13.8604 14.2 13.6337 14.2Z" fill="#121212"/>
<path d="M0.26001 14V0.0599976H9.64001V2.62H3.12001V5.56H8.78001V8.12H3.12001V14H0.26001Z" fill="#121212"/>
<path fill-rule="evenodd" clip-rule="evenodd" d="M91.9497 6.36396L87.7071 2.12132C87.3166 1.7308 86.6834 1.7308 86.2929 2.12132L82.0503 6.36396C81.6597 6.75449 81.6597 7.38765 82.0503 7.77817L86.2929 12.0208C86.6834 12.4113 87.3166 12.4113 87.7071 12.0208L91.9497 7.77817C92.3403 7.38765 92.3403 6.75449 91.9497 6.36396ZM88.4142 1.41421C87.6332 0.633165 86.3668 0.633165 85.5858 1.41421L81.3431 5.65685C80.5621 6.4379 80.5621 7.70423 81.3431 8.48528L85.5858 12.7279C86.3668 13.509 87.6332 13.509 88.4142 12.7279L92.6569 8.48528C93.4379 7.70423 93.4379 6.4379 92.6569 5.65685L88.4142 1.41421Z" fill="#0BE3AF"/>
<path fill-rule="evenodd" clip-rule="evenodd" d="M75.3535 8.71753L78.9393 12.3033C79.5251 12.8891 80.4749 12.8891 81.0606 12.3033L83.1464 10.2175L83.8535 10.9246L81.7677 13.0104C80.7914 13.9867 79.2085 13.9867 78.2322 13.0104L74.6464 9.42464L75.3535 8.71753Z" fill="#0BE3AF"/>
<path fill-rule="evenodd" clip-rule="evenodd" d="M74 9.07108C75.1046 9.07108 76 8.17564 76 7.07108C76 5.96651 75.1046 5.07108 74 5.07108C72.8954 5.07108 72 5.96651 72 7.07108C72 8.17564 72.8954 9.07108 74 9.07108ZM74 10.0711C75.6569 10.0711 77 8.72793 77 7.07108C77 5.41422 75.6569 4.07108 74 4.07108C72.3431 4.07108 71 5.41422 71 7.07108C71 8.72793 72.3431 10.0711 74 10.0711Z" fill="#121212"/>
<path d="M75 7C75 7.55228 74.5523 8 74 8C73.4477 8 73 7.55228 73 7C73 6.44772 73.4477 6 74 6C74.5523 6 75 6.44772 75 7Z" fill="#0BE3AF"/>
</svg>
