<svg width="205" xmlns="http://www.w3.org/2000/svg" height="39" fill="none"><g style="fill: rgb(0, 0, 0);"><path d="M53.246,31.276C53.221,30.684,52.817,30.180,52.240,30.020C48.154,28.887,45.695,27.306,44.351,26.178C43.890,25.791,43.477,25.390,43.123,24.985L42.671,24.468L43.049,23.896L49.070,14.789C49.406,14.281,49.365,13.628,48.967,13.165C48.704,12.858,48.320,12.683,47.913,12.683C47.722,12.683,47.537,12.721,47.361,12.797C44.066,14.217,40.030,14.968,35.686,14.968C34.931,14.968,34.159,14.945,33.391,14.899L32.670,14.857L32.541,14.155C31.862,10.444,30.123,7.622,27.372,5.767C24.567,3.874,20.632,2.914,15.678,2.914C12.835,2.914,10.238,3.576,8.560,4.130L7.444,4.499L7.350,3.341C7.199,1.468,5.587,0.000,3.681,0.000C1.651,0.000,0.000,1.629,0.000,3.632C0.000,4.849,0.619,5.981,1.656,6.662L1.984,6.878L2.052,7.260L6.874,34.246C6.991,34.898,7.563,35.371,8.234,35.371L10.074,35.371C10.483,35.371,10.868,35.194,11.131,34.885C11.394,34.575,11.504,34.170,11.433,33.772L10.154,26.613L10.038,25.962L10.630,25.652C11.340,25.282,15.126,23.434,19.948,23.434C20.641,23.434,21.334,23.473,22.009,23.549L22.691,23.627L22.810,24.294L23.953,30.689C24.190,31.859,25.020,32.597,25.720,32.898C26.335,33.162,31.861,35.455,38.763,35.455C43.887,35.455,48.320,34.087,52.348,32.608C52.909,32.402,53.270,31.867,53.246,31.276ZL53.246,31.276ZZ" style="fill: rgb(146, 154, 154); fill-opacity: 1;" class="fills"/><path d="M16.667,15.420C21.901,15.078,28.533,15.909,33.231,21.337C33.646,21.817,33.358,22.062,33.740,22.615L33.740,23.349L33.052,23.812C28.830,17.700,22.234,16.703,16.780,17.059C14.373,17.232,12.259,17.781,10.744,18.289C9.987,18.542,9.383,18.784,8.972,18.962C8.766,19.050,8.609,19.122,8.505,19.172C8.453,19.196,8.414,19.215,8.389,19.227C8.377,19.233,8.368,19.238,8.362,19.240L8.357,19.243C8.357,19.243,8.357,19.243,7.974,18.513C7.592,17.784,7.592,17.783,7.592,17.783L7.594,17.783L7.598,17.781L7.608,17.775C7.618,17.771,7.630,17.764,7.647,17.757C7.679,17.741,7.726,17.718,7.786,17.689C7.907,17.633,8.082,17.552,8.306,17.456C8.755,17.263,9.402,17.003,10.208,16.733C11.818,16.194,14.076,15.606,16.667,15.420ZL16.667,15.420ZL16.667,15.420ZZ" fill-rule="evenodd" clip-rule="evenodd" style="fill: rgb(146, 154, 154); fill-opacity: 1;" class="fills"/><path d="M16.062,9.437C21.735,9.271,28.847,10.266,32.580,16.439C32.987,17.112,32.435,17.448,32.755,18.249L32.899,18.948L32.125,19.250C29.286,12.152,22.285,10.899,16.114,11.079C13.639,11.165,11.401,11.696,9.776,12.209C8.965,12.465,8.311,12.715,7.863,12.900C7.640,12.992,7.467,13.068,7.353,13.120C7.296,13.146,7.253,13.166,7.225,13.179C7.211,13.185,7.201,13.190,7.195,13.193L7.189,13.196L7.189,13.196C7.189,13.196,7.189,13.196,6.818,12.461C6.447,11.725,6.447,11.725,6.447,11.725L6.449,11.724L6.453,11.722L6.464,11.717C6.474,11.712,6.488,11.705,6.506,11.697C6.541,11.680,6.592,11.657,6.657,11.627C6.788,11.567,6.978,11.484,7.221,11.384C7.707,11.183,8.406,10.916,9.268,10.644C10.990,10.101,13.385,9.530,16.062,9.437ZL16.062,9.437ZL16.062,9.437ZZ" fill-rule="evenodd" clip-rule="evenodd" style="fill: rgb(146, 154, 154); fill-opacity: 1;" class="fills"/><path d="M4.980,5.505C5.585,5.096,5.981,4.410,5.981,3.632C5.981,2.378,4.951,1.362,3.681,1.362C2.410,1.362,1.380,2.378,1.380,3.632C1.380,4.724,2.161,5.636,3.202,5.853L8.234,34.009L10.074,34.009L4.980,5.505ZZ" style="fill: rgb(255, 255, 255);" class="fills"/><path d="M7.398,11.312L6.522,6.408C6.522,6.408,10.719,4.276,15.678,4.276C22.120,4.276,29.683,5.766,31.209,14.548C31.210,14.553,31.211,14.558,31.212,14.563C27.278,10.059,21.102,9.289,16.061,9.437L16.059,9.437L16.056,9.437C13.384,9.530,10.989,10.101,9.267,10.644C8.505,10.885,7.870,11.121,7.398,11.312ZZ" style="fill: rgb(255, 255, 255);" class="fills"/><path d="M7.694,12.970L8.483,17.380C8.918,17.198,9.502,16.970,10.207,16.733C11.817,16.194,14.075,15.606,16.660,15.420L16.663,15.420L16.666,15.420C21.536,15.102,27.618,15.799,32.224,20.272C32.143,19.820,32.060,19.361,31.978,18.898C29.050,12.111,22.181,10.902,16.113,11.079C13.638,11.166,11.400,11.696,9.775,12.209C8.964,12.465,8.310,12.715,7.862,12.900C7.803,12.924,7.747,12.948,7.694,12.970ZZ" style="fill: rgb(255, 255, 255);" class="fills"/><path d="M32.799,23.457C28.570,17.661,22.125,16.710,16.779,17.059C14.372,17.232,12.258,17.781,10.743,18.289C9.986,18.543,9.383,18.785,8.971,18.962C8.902,18.991,8.838,19.020,8.780,19.045L9.767,24.566C9.767,24.566,22.650,17.217,33.568,27.750C33.426,26.922,33.153,25.410,32.799,23.457ZC32.810,23.516,32.805,23.487,32.799,23.457ZZ" style="fill: rgb(255, 255, 255);" class="fills"/><path d="M26.292,31.657C26.292,31.657,31.814,34.092,38.763,34.092C43.445,34.092,47.574,32.907,51.867,31.331C48.677,30.447,46.379,29.296,44.745,28.187C41.553,28.888,38.323,29.022,35.100,28.646C35.170,29.046,35.239,29.447,35.307,29.847L26.292,31.657ZZ" style="fill: rgb(255, 255, 255);" class="fills"/><path d="M34.813,27.009C37.581,27.377,40.346,27.350,43.082,26.890C41.542,25.501,41.054,24.421,41.054,24.421L42.814,21.758C39.257,22.592,36.225,22.509,33.989,22.397C34.266,23.934,34.542,25.471,34.813,27.009ZZ" style="fill: rgb(255, 255, 255);" class="fills"/><path d="M33.699,20.791C36.299,20.926,39.880,21.079,44.144,19.747L47.913,14.045C43.300,16.034,37.880,16.581,32.884,16.232C33.152,17.752,33.425,19.272,33.699,20.791ZZ" style="fill: rgb(255, 255, 255);" class="fills"/><path d="M126.417,17.157L126.417,33.526L128.781,33.526L128.781,17.157L126.417,17.157ZZ" style="fill: rgb(146, 154, 154); fill-opacity: 1;" class="fills"/><path d="M126.353,14.317C126.630,14.551,127.045,14.668,127.599,14.668C128.131,14.668,128.536,14.551,128.813,14.317C129.090,14.083,129.228,13.742,129.228,13.296C129.228,12.849,129.090,12.509,128.813,12.275C128.536,12.041,128.121,11.924,127.567,11.924C127.034,11.924,126.630,12.041,126.353,12.275C126.076,12.509,125.937,12.838,125.937,13.264C125.937,13.711,126.076,14.062,126.353,14.317ZZ" style="fill: rgb(146, 154, 154); fill-opacity: 1;" class="fills"/><path d="M132.212,38.121L132.244,24.943L132.212,17.157L134.480,17.157L134.097,22.198L134.416,22.198C134.693,20.922,135.098,19.880,135.630,19.071C136.163,18.263,136.802,17.667,137.547,17.284C138.314,16.901,139.176,16.710,140.135,16.710C141.434,16.710,142.574,17.040,143.553,17.699C144.554,18.337,145.332,19.295,145.885,20.571C146.439,21.847,146.716,23.411,146.716,25.262C146.716,27.112,146.439,28.687,145.885,29.984C145.353,31.282,144.608,32.271,143.649,32.952C142.691,33.611,141.572,33.941,140.295,33.941C139.123,33.941,138.133,33.675,137.323,33.143C136.514,32.611,135.864,31.877,135.375,30.941C134.906,29.984,134.576,28.899,134.384,27.687L134.001,27.687C134.129,28.580,134.235,29.410,134.320,30.176C134.405,30.920,134.469,31.612,134.512,32.250C134.555,32.888,134.576,33.483,134.576,34.037L134.576,38.121L132.212,38.121ZZM139.751,31.771C140.710,31.771,141.519,31.516,142.179,31.005C142.861,30.473,143.383,29.729,143.745,28.772C144.128,27.793,144.320,26.612,144.320,25.230C144.320,23.932,144.150,22.815,143.809,21.879C143.468,20.922,142.957,20.188,142.275,19.678C141.615,19.146,140.784,18.880,139.783,18.880C138.910,18.880,138.143,19.082,137.483,19.486C136.844,19.869,136.312,20.369,135.886,20.986C135.481,21.581,135.172,22.220,134.959,22.900C134.746,23.581,134.640,24.219,134.640,24.815L134.640,25.166C134.640,25.528,134.693,25.995,134.799,26.570C134.906,27.123,135.076,27.697,135.311,28.293C135.545,28.889,135.854,29.452,136.237,29.984C136.642,30.516,137.132,30.952,137.707,31.292C138.303,31.612,138.985,31.771,139.751,31.771ZZ" fill-rule="evenodd" clip-rule="evenodd" style="fill: rgb(146, 154, 154); fill-opacity: 1;" class="fills"/><path d="M152.936,33.590C153.809,33.824,154.779,33.941,155.843,33.941C157.207,33.941,158.389,33.760,159.390,33.398C160.391,33.016,161.168,32.473,161.722,31.771C162.276,31.069,162.553,30.218,162.553,29.218C162.553,28.304,162.361,27.559,161.978,26.985C161.615,26.410,161.126,25.953,160.508,25.613C159.890,25.272,159.198,25.017,158.431,24.847C157.686,24.655,156.930,24.485,156.163,24.336C155.290,24.187,154.491,24.017,153.767,23.826C153.043,23.634,152.468,23.358,152.042,22.996C151.616,22.613,151.403,22.081,151.403,21.401C151.403,20.571,151.754,19.922,152.457,19.454C153.181,18.986,154.129,18.752,155.300,18.752C156.174,18.752,156.940,18.890,157.601,19.167C158.282,19.444,158.804,19.880,159.166,20.475C159.549,21.050,159.720,21.794,159.677,22.709L161.818,22.326C161.860,21.071,161.605,20.029,161.051,19.199C160.497,18.369,159.730,17.752,158.751,17.348C157.771,16.923,156.663,16.710,155.428,16.710C154.150,16.710,153.032,16.912,152.074,17.316C151.136,17.720,150.412,18.284,149.901,19.007C149.390,19.731,149.134,20.582,149.134,21.560C149.134,22.432,149.305,23.145,149.646,23.698C150.008,24.251,150.487,24.698,151.083,25.038C151.701,25.357,152.393,25.623,153.160,25.836C153.927,26.027,154.704,26.198,155.492,26.346C156.387,26.517,157.196,26.708,157.920,26.921C158.644,27.112,159.209,27.389,159.613,27.750C160.039,28.112,160.252,28.633,160.252,29.314C160.252,30.101,159.880,30.739,159.134,31.229C158.389,31.697,157.324,31.931,155.939,31.931C154.938,31.931,154.054,31.792,153.288,31.516C152.542,31.218,151.978,30.761,151.594,30.144C151.211,29.527,151.062,28.697,151.147,27.655L148.943,27.942C148.879,28.984,149.007,29.888,149.326,30.654C149.646,31.420,150.103,32.048,150.700,32.537C151.318,33.005,152.063,33.356,152.936,33.590ZZ" style="fill: rgb(146, 154, 154); fill-opacity: 1;" class="fills"/><path d="M181.829,33.526L181.829,25.740L181.765,17.157L184.033,17.157L183.522,24.368L183.873,24.368C184.065,22.624,184.385,21.188,184.832,20.060C185.300,18.933,185.907,18.093,186.653,17.540C187.398,16.987,188.293,16.710,189.337,16.710C190.444,16.710,191.339,17.008,192.020,17.603C192.702,18.199,193.181,19.071,193.458,20.220C193.756,21.347,193.852,22.720,193.745,24.336L194.097,24.336C194.246,22.634,194.544,21.220,194.991,20.092C195.439,18.965,196.046,18.125,196.812,17.571C197.579,16.997,198.527,16.710,199.656,16.710C200.486,16.710,201.221,16.869,201.860,17.189C202.499,17.508,203.032,17.997,203.458,18.656C203.884,19.295,204.203,20.103,204.416,21.082C204.629,22.060,204.736,23.188,204.736,24.464L204.736,33.526L202.371,33.526L202.371,24.847C202.371,23.485,202.254,22.369,202.020,21.496C201.807,20.624,201.466,19.986,200.998,19.582C200.529,19.156,199.922,18.944,199.177,18.944C198.197,18.944,197.356,19.305,196.653,20.029C195.971,20.752,195.439,21.762,195.055,23.060C194.693,24.336,194.491,25.857,194.448,27.623L194.448,33.526L192.116,33.526L192.116,24.815C192.116,23.496,191.999,22.400,191.765,21.528C191.530,20.656,191.179,20.007,190.710,19.582C190.263,19.156,189.667,18.944,188.921,18.944C187.963,18.944,187.132,19.305,186.429,20.029C185.748,20.731,185.205,21.741,184.800,23.060C184.417,24.357,184.204,25.889,184.161,27.655L184.161,33.526L181.829,33.526ZZ" style="fill: rgb(146, 154, 154); fill-opacity: 1;" class="fills"/><path d="M170.480,33.941C168.563,33.941,167.147,33.250,166.231,31.867C165.336,30.484,164.889,28.357,164.889,25.485L164.889,17.157L167.285,17.157L167.285,25.453C167.285,27.644,167.573,29.250,168.148,30.271C168.723,31.271,169.671,31.771,170.991,31.771C171.779,31.771,172.472,31.590,173.068,31.229C173.664,30.846,174.175,30.293,174.601,29.569C175.027,28.846,175.358,27.931,175.592,26.825C175.826,25.719,175.954,24.432,175.975,22.964L175.975,17.157L178.339,17.157L178.339,25.389L178.371,33.526L176.135,33.526L176.646,26.921L176.295,26.921C176.082,28.538,175.720,29.867,175.208,30.910C174.719,31.931,174.080,32.696,173.292,33.207C172.525,33.696,171.588,33.941,170.480,33.941ZZ" style="fill: rgb(146, 154, 154); fill-opacity: 1;" class="fills"/><path d="M115.676,33.973C114.079,33.973,112.662,33.643,111.427,32.984C110.191,32.324,109.222,31.346,108.520,30.048C107.817,28.750,107.465,27.134,107.465,25.198C107.465,23.219,107.827,21.581,108.551,20.284C109.276,18.986,110.255,18.018,111.491,17.380C112.726,16.742,114.121,16.423,115.676,16.423C117.252,16.423,118.658,16.753,119.893,17.412C121.128,18.071,122.097,19.050,122.800,20.348C123.503,21.645,123.855,23.273,123.855,25.230C123.855,27.208,123.493,28.846,122.768,30.144C122.066,31.441,121.086,32.409,119.829,33.047C118.594,33.664,117.209,33.973,115.676,33.973ZZM115.772,30.878C116.624,30.878,117.337,30.665,117.912,30.239C118.509,29.814,118.967,29.197,119.286,28.389C119.606,27.559,119.765,26.570,119.765,25.421C119.765,24.209,119.595,23.177,119.254,22.326C118.935,21.475,118.455,20.816,117.816,20.348C117.199,19.880,116.453,19.646,115.580,19.646C114.728,19.646,114.004,19.869,113.408,20.316C112.811,20.741,112.353,21.369,112.034,22.198C111.714,23.007,111.555,23.985,111.555,25.134C111.555,26.942,111.927,28.357,112.673,29.378C113.418,30.378,114.451,30.878,115.772,30.878ZZ" fill-rule="evenodd" clip-rule="evenodd" style="fill: rgb(146, 154, 154); fill-opacity: 1;" class="fills"/><path d="M93.341,38.249C94.448,38.546,95.928,38.695,97.781,38.695C99.847,38.695,101.551,38.504,102.893,38.121C104.235,37.759,105.236,37.196,105.896,36.430C106.578,35.664,106.919,34.685,106.919,33.494C106.919,32.431,106.684,31.612,106.216,31.037C105.768,30.441,105.204,30.016,104.522,29.761C103.862,29.506,103.202,29.357,102.542,29.314C101.881,29.250,101.349,29.218,100.944,29.218L96.088,29.218C95.769,29.218,95.471,29.208,95.194,29.186C94.938,29.144,94.725,29.091,94.555,29.027C94.406,28.942,94.331,28.814,94.331,28.644C94.331,28.452,94.459,28.250,94.714,28.038C94.991,27.804,95.407,27.559,95.960,27.304C96.408,27.389,96.823,27.453,97.206,27.495C97.590,27.517,97.973,27.527,98.357,27.527C99.826,27.527,101.061,27.346,102.062,26.985C103.085,26.602,103.852,26.081,104.363,25.421C104.874,24.740,105.130,23.975,105.130,23.124C105.130,22.273,104.821,21.560,104.203,20.986C103.585,20.390,102.520,19.965,101.008,19.709L101.008,19.327L106.535,20.060L106.535,16.806L98.229,16.806C96.695,16.806,95.385,17.040,94.299,17.508C93.213,17.954,92.382,18.593,91.807,19.422C91.232,20.231,90.945,21.167,90.945,22.230C90.945,23.443,91.285,24.443,91.967,25.230C92.670,25.995,93.660,26.474,94.938,26.666L94.938,27.048C93.596,27.219,92.638,27.527,92.063,27.974C91.488,28.421,91.200,28.931,91.200,29.506C91.200,30.122,91.498,30.590,92.095,30.910C92.712,31.207,93.596,31.356,94.746,31.356L94.746,31.707C93.255,31.920,92.127,32.324,91.360,32.920C90.614,33.515,90.242,34.281,90.242,35.217C90.242,35.919,90.476,36.526,90.945,37.036C91.434,37.568,92.233,37.972,93.341,38.249ZZM101.200,34.994C100.412,35.143,99.283,35.217,97.813,35.217C96.983,35.217,96.259,35.185,95.641,35.122C95.045,35.058,94.576,34.919,94.235,34.707C93.894,34.494,93.724,34.175,93.724,33.749C93.724,33.324,93.905,32.952,94.267,32.633C94.629,32.314,95.268,32.016,96.184,31.739L100.305,31.739C100.582,31.739,100.891,31.750,101.232,31.771C101.573,31.792,101.903,31.856,102.222,31.963C102.563,32.048,102.840,32.207,103.053,32.441C103.266,32.654,103.372,32.973,103.372,33.398C103.372,33.781,103.213,34.111,102.893,34.388C102.574,34.664,102.009,34.866,101.200,34.994ZZM100.465,24.432C99.933,24.943,99.177,25.198,98.197,25.198C97.537,25.198,96.961,25.081,96.472,24.847C95.982,24.613,95.598,24.283,95.321,23.858C95.066,23.411,94.938,22.911,94.938,22.358C94.938,21.507,95.226,20.805,95.801,20.252C96.376,19.699,97.153,19.422,98.133,19.422C99.113,19.422,99.879,19.699,100.433,20.252C101.008,20.805,101.296,21.518,101.296,22.390C101.296,23.241,101.019,23.921,100.465,24.432ZZ" fill-rule="evenodd" clip-rule="evenodd" style="fill: rgb(146, 154, 154); fill-opacity: 1;" class="fills"/><path d="M80.997,33.973C79.400,33.973,77.984,33.643,76.748,32.984C75.513,32.324,74.544,31.346,73.841,30.048C73.138,28.750,72.787,27.134,72.787,25.198C72.787,23.219,73.149,21.581,73.873,20.284C74.597,18.986,75.577,18.018,76.812,17.380C78.047,16.742,79.443,16.423,80.997,16.423C82.573,16.423,83.979,16.753,85.215,17.412C86.450,18.071,87.419,19.050,88.122,20.348C88.824,21.645,89.176,23.273,89.176,25.230C89.176,27.208,88.814,28.846,88.090,30.144C87.387,31.441,86.407,32.409,85.151,33.047C83.915,33.664,82.531,33.973,80.997,33.973ZZM81.093,30.878C81.945,30.878,82.659,30.665,83.234,30.239C83.830,29.814,84.288,29.197,84.607,28.389C84.927,27.559,85.087,26.570,85.087,25.421C85.087,24.209,84.916,23.177,84.576,22.326C84.256,21.475,83.777,20.816,83.138,20.348C82.520,19.880,81.775,19.646,80.902,19.646C80.050,19.646,79.325,19.869,78.729,20.316C78.133,20.741,77.675,21.369,77.355,22.198C77.036,23.007,76.876,23.985,76.876,25.134C76.876,26.942,77.249,28.357,77.994,29.378C78.740,30.378,79.773,30.878,81.093,30.878ZZ" fill-rule="evenodd" clip-rule="evenodd" style="fill: rgb(146, 154, 154); fill-opacity: 1;" class="fills"/><path d="M59.428,12.466L59.428,33.526L72.335,33.526L72.335,30.048L63.485,30.048L63.485,12.466L59.428,12.466ZZ" style="fill: rgb(146, 154, 154); fill-opacity: 1;" class="fills"/></g></svg>