<svg width="46" xmlns="http://www.w3.org/2000/svg" height="46" fill="none"><g style="fill: rgb(0, 0, 0);"><g class="fills"><path d="M44.988,30.360L15.088,30.360L15.088,0.432L24.490,0.432C29.927,0.432,35.140,2.592,38.984,6.436C42.828,10.280,44.988,15.494,44.988,20.930L44.988,30.360ZZ" fill="none" class="stroke" style="fill: none;"/></g><g fill="none" class="strokes" stroke-miterlimit="10"><path d="M44.988,30.360L15.088,30.360L15.088,0.432L24.490,0.432C29.927,0.432,35.140,2.592,38.984,6.436C42.828,10.280,44.988,15.494,44.988,20.930L44.988,30.360ZZ" style="fill: none; stroke-width: 0.43; stroke: rgb(146, 154, 154); stroke-opacity: 1;" class="stroke-shape"/></g><g class="fills"><path d="M42.559,31.814L13.671,31.814L13.671,2.916L23.000,2.916C25.568,2.915,28.111,3.420,30.484,4.402C32.857,5.384,35.014,6.824,36.830,8.639C38.646,10.455,40.087,12.610,41.070,14.983C42.053,17.355,42.559,19.898,42.559,22.466L42.559,31.814ZZ" fill="none" class="stroke" style="fill: none;"/></g><g fill="none" class="strokes" stroke-miterlimit="10"><path d="M42.559,31.814L13.671,31.814L13.671,2.916L23.000,2.916C25.568,2.915,28.111,3.420,30.484,4.402C32.857,5.384,35.014,6.824,36.830,8.639C38.646,10.455,40.087,12.610,41.070,14.983C42.053,17.355,42.559,19.898,42.559,22.466L42.559,31.814ZZ" style="fill: none; stroke-width: 0.43; stroke: rgb(146, 154, 154); stroke-opacity: 1;" class="stroke-shape"/></g><g class="fills"><path d="M40.130,33.286L12.254,33.286L12.254,5.401L21.528,5.401C23.971,5.401,26.390,5.882,28.647,6.817C30.904,7.751,32.954,9.122,34.682,10.849C36.409,12.576,37.780,14.627,38.714,16.884C39.649,19.141,40.130,21.560,40.130,24.003L40.130,33.286ZZ" fill="none" class="stroke" style="fill: none;"/></g><g fill="none" class="strokes" stroke-miterlimit="10"><path d="M40.130,33.286L12.254,33.286L12.254,5.401L21.528,5.401C23.971,5.401,26.390,5.882,28.647,6.817C30.904,7.751,32.954,9.122,34.682,10.849C36.409,12.576,37.780,14.627,38.714,16.884C39.649,19.141,40.130,21.560,40.130,24.003L40.130,33.286ZZ" style="fill: none; stroke-width: 0.44; stroke: rgb(146, 154, 154); stroke-opacity: 1;" class="stroke-shape"/></g><g class="fills"><path d="M37.720,34.758L10.838,34.758L10.838,7.884L20.038,7.884C22.359,7.882,24.658,8.337,26.803,9.224C28.948,10.110,30.898,11.411,32.540,13.052C34.182,14.692,35.485,16.640,36.374,18.784C37.262,20.929,37.720,23.227,37.720,25.548L37.720,34.758ZZ" fill="none" class="stroke" style="fill: none;"/></g><g fill="none" class="strokes" stroke-miterlimit="10"><path d="M37.720,34.758L10.838,34.758L10.838,7.884L20.038,7.884C22.359,7.882,24.658,8.337,26.803,9.224C28.948,10.110,30.898,11.411,32.540,13.052C34.182,14.692,35.485,16.640,36.374,18.784C37.262,20.929,37.720,23.227,37.720,25.548L37.720,34.758ZZ" style="fill: none; stroke-width: 0.45; stroke: rgb(146, 154, 154); stroke-opacity: 1;" class="stroke-shape"/></g><g class="fills"><path d="M35.282,36.230L9.421,36.230L9.421,10.368L18.566,10.368C22.998,10.371,27.249,12.133,30.383,15.267C33.518,18.402,35.280,22.652,35.282,27.085L35.282,36.230ZZ" fill="none" class="stroke" style="fill: none;"/></g><g fill="none" class="strokes" stroke-miterlimit="10"><path d="M35.282,36.230L9.421,36.230L9.421,10.368L18.566,10.368C22.998,10.371,27.249,12.133,30.383,15.267C33.518,18.402,35.280,22.652,35.282,27.085L35.282,36.230ZZ" style="fill: none; stroke-width: 0.46; stroke: rgb(146, 154, 154); stroke-opacity: 1;" class="stroke-shape"/></g><g class="fills"><path d="M32.853,37.720L8.004,37.720L8.004,12.880L17.084,12.880C21.262,12.880,25.268,14.538,28.225,17.489C31.181,20.440,32.846,24.444,32.853,28.621L32.853,37.720ZZ" fill="none" class="stroke" style="fill: none;"/></g><g fill="none" class="strokes" stroke-miterlimit="10"><path d="M32.853,37.720L8.004,37.720L8.004,12.880L17.084,12.880C21.262,12.880,25.268,14.538,28.225,17.489C31.181,20.440,32.846,24.444,32.853,28.621L32.853,37.720ZZ" style="fill: none; stroke-width: 0.46; stroke: rgb(146, 154, 154); stroke-opacity: 1;" class="stroke-shape"/></g><g class="fills"><path d="M30.424,39.183L6.587,39.183L6.587,15.336L15.640,15.336C19.565,15.349,23.326,16.916,26.097,19.696C28.868,22.476,30.424,26.241,30.424,30.167L30.424,39.183ZZ" fill="none" class="stroke" style="fill: none;"/></g><g fill="none" class="strokes" stroke-miterlimit="10"><path d="M30.424,39.183L6.587,39.183L6.587,15.336L15.640,15.336C19.565,15.349,23.326,16.916,26.097,19.696C28.868,22.476,30.424,26.241,30.424,30.167L30.424,39.183ZZ" style="fill: none; stroke-width: 0.47; stroke: rgb(146, 154, 154); stroke-opacity: 1;" class="stroke-shape"/></g><g class="fills"><path d="M28.005,40.655L5.170,40.655L5.170,17.820L14.122,17.820C17.803,17.823,21.333,19.286,23.936,21.889C26.539,24.492,28.002,28.022,28.005,31.703L28.005,40.655ZZ" fill="none" class="stroke" style="fill: none;"/></g><g fill="none" class="strokes" stroke-miterlimit="10"><path d="M28.005,40.655L5.170,40.655L5.170,17.820L14.122,17.820C17.803,17.823,21.333,19.286,23.936,21.889C26.539,24.492,28.002,28.022,28.005,31.703L28.005,40.655ZZ" style="fill: none; stroke-width: 0.48; stroke: rgb(146, 154, 154); stroke-opacity: 1;" class="stroke-shape"/></g><g class="fills"><path d="M25.576,42.127L3.754,42.127L3.754,20.304L12.641,20.304C16.072,20.307,19.362,21.672,21.788,24.099C24.213,26.526,25.576,29.817,25.576,33.249L25.576,42.127ZZ" fill="none" class="stroke" style="fill: none;"/></g><g fill="none" class="strokes" stroke-miterlimit="10"><path d="M25.576,42.127L3.754,42.127L3.754,20.304L12.641,20.304C16.072,20.307,19.362,21.672,21.788,24.099C24.213,26.526,25.576,29.817,25.576,33.249L25.576,42.127ZZ" style="fill: none; stroke-width: 0.49; stroke: rgb(146, 154, 154); stroke-opacity: 1;" class="stroke-shape"/></g><g class="fills"><path d="M23.147,43.608L2.337,43.608L2.337,22.788L11.160,22.788C12.730,22.788,14.285,23.098,15.737,23.699C17.188,24.300,18.506,25.181,19.617,26.291C20.727,27.402,21.608,28.720,22.209,30.171C22.810,31.623,23.120,33.178,23.120,34.748L23.147,43.608ZZ" fill="none" class="stroke" style="fill: none;"/></g><g fill="none" class="strokes" stroke-miterlimit="10"><path d="M23.147,43.608L2.337,43.608L2.337,22.788L11.160,22.788C12.730,22.788,14.285,23.098,15.737,23.699C17.188,24.300,18.506,25.181,19.617,26.291C20.727,27.402,21.608,28.720,22.209,30.171C22.810,31.623,23.120,33.178,23.120,34.748L23.147,43.608ZZ" style="fill: none; stroke-width: 0.49; stroke: rgb(146, 154, 154); stroke-opacity: 1;" class="stroke-shape"/></g><g class="fills"><path d="M20.728,45.080L0.920,45.080L0.920,25.272L9.678,25.272C12.606,25.272,15.414,26.436,17.485,28.506C19.555,30.576,20.718,33.384,20.718,36.312L20.728,45.080ZZ" fill="none" class="stroke" style="fill: none;"/></g><g fill="none" class="strokes" stroke-miterlimit="10"><path d="M20.728,45.080L0.920,45.080L0.920,25.272L9.678,25.272C12.606,25.272,15.414,26.436,17.485,28.506C19.555,30.576,20.718,33.384,20.718,36.312L20.728,45.080ZZ" style="fill: none; stroke-width: 0.5; stroke: rgb(146, 154, 154); stroke-opacity: 1;" class="stroke-shape"/></g></g></svg>