<svg width="160" xmlns="http://www.w3.org/2000/svg" height="30" fill="none"><g style="fill: rgb(0, 0, 0);"><g class="fills"><path d="M38.566,1.275L42.560,1.275L42.560,23.064L49.133,23.064L49.133,26.695L38.566,26.695L38.566,1.275ZZ" class="ccompli1" style="fill: rgb(146, 154, 154); fill-opacity: 1;"/></g><g class="fills"><path d="M56.681,27.058C54.720,27.058,53.219,26.502,52.178,25.388C51.137,24.274,50.617,22.701,50.617,20.667L50.617,7.303C50.617,5.269,51.137,3.696,52.178,2.582C53.219,1.468,54.720,0.911,56.681,0.911C58.642,0.911,60.143,1.468,61.184,2.582C62.225,3.696,62.746,5.269,62.746,7.303L62.746,20.667C62.746,22.701,62.225,24.274,61.184,25.388C60.143,26.502,58.642,27.058,56.681,27.058ZZM56.681,23.427C58.061,23.427,58.751,22.592,58.751,20.921L58.751,7.049C58.751,5.378,58.061,4.543,56.681,4.543C55.301,4.543,54.611,5.378,54.611,7.049L54.611,20.921C54.611,22.592,55.301,23.427,56.681,23.427ZZ" class="ccompli1" style="fill: rgb(146, 154, 154); fill-opacity: 1;"/></g><g class="fills"><path d="M71.112,27.058C69.176,27.058,67.699,26.514,66.682,25.424C65.665,24.311,65.157,22.725,65.157,20.667L65.157,7.303C65.157,5.245,65.665,3.671,66.682,2.582C67.699,1.468,69.176,0.911,71.112,0.911C73.049,0.911,74.526,1.468,75.543,2.582C76.560,3.671,77.068,5.245,77.068,7.303L77.068,9.482L73.291,9.482L73.291,7.049C73.291,5.378,72.601,4.543,71.221,4.543C69.841,4.543,69.151,5.378,69.151,7.049L69.151,20.957C69.151,22.604,69.841,23.427,71.221,23.427C72.601,23.427,73.291,22.604,73.291,20.957L73.291,15.982L71.294,15.982L71.294,12.351L77.068,12.351L77.068,20.667C77.068,22.725,76.560,24.311,75.543,25.424C74.526,26.514,73.049,27.058,71.112,27.058ZZ" class="ccompli1" style="fill: rgb(146, 154, 154); fill-opacity: 1;"/></g><g class="fills"><path d="M85.407,27.058C83.446,27.058,81.945,26.502,80.904,25.388C79.863,24.274,79.342,22.701,79.342,20.667L79.342,7.303C79.342,5.269,79.863,3.696,80.904,2.582C81.945,1.468,83.446,0.911,85.407,0.911C87.368,0.911,88.869,1.468,89.910,2.582C90.951,3.696,91.472,5.269,91.472,7.303L91.472,20.667C91.472,22.701,90.951,24.274,89.910,25.388C88.869,26.502,87.368,27.058,85.407,27.058ZZM85.407,23.427C86.787,23.427,87.477,22.592,87.477,20.921L87.477,7.049C87.477,5.378,86.787,4.543,85.407,4.543C84.027,4.543,83.337,5.378,83.337,7.049L83.337,20.921C83.337,22.592,84.027,23.427,85.407,23.427ZZ" class="ccompli1" style="fill: rgb(146, 154, 154); fill-opacity: 1;"/></g><g class="fills"><path d="M94.181,1.275L98.176,1.275L98.176,26.695L94.181,26.695L94.181,1.275ZZ" class="ccustom" style="fill: rgb(146, 154, 154); fill-opacity: 1;"/></g><g class="fills"><path d="M101.167,1.275L107.050,1.275C109.035,1.275,110.524,1.807,111.517,2.873C112.510,3.938,113.006,5.499,113.006,7.557L113.006,10.063C113.006,12.121,112.510,13.682,111.517,14.748C110.524,15.813,109.035,16.345,107.050,16.345L105.162,16.345L105.162,26.695L101.167,26.695L101.167,1.275ZZM107.050,12.714C107.704,12.714,108.188,12.532,108.503,12.169C108.842,11.806,109.011,11.189,109.011,10.317L109.011,7.303C109.011,6.431,108.842,5.814,108.503,5.451C108.188,5.088,107.704,4.906,107.050,4.906L105.162,4.906L105.162,12.714L107.050,12.714ZZ" class="ccustom" style="fill: rgb(146, 154, 154); fill-opacity: 1;"/></g><g class="fills"><path d="M120.510,27.058C118.574,27.058,117.109,26.514,116.116,25.424C115.124,24.311,114.627,22.725,114.627,20.667L114.627,19.214L118.404,19.214L118.404,20.957C118.404,22.604,119.094,23.427,120.474,23.427C121.152,23.427,121.660,23.233,121.999,22.846C122.362,22.434,122.544,21.781,122.544,20.885C122.544,19.820,122.302,18.888,121.818,18.089C121.334,17.265,120.438,16.285,119.130,15.147C117.484,13.694,116.334,12.387,115.680,11.225C115.027,10.039,114.700,8.707,114.700,7.230C114.700,5.221,115.208,3.671,116.225,2.582C117.242,1.468,118.719,0.911,120.656,0.911C122.568,0.911,124.009,1.468,124.977,2.582C125.970,3.671,126.466,5.245,126.466,7.303L126.466,8.356L122.689,8.356L122.689,7.049C122.689,6.177,122.520,5.548,122.181,5.160C121.842,4.749,121.346,4.543,120.692,4.543C119.360,4.543,118.695,5.354,118.695,6.976C118.695,7.896,118.937,8.756,119.421,9.554C119.929,10.353,120.837,11.322,122.145,12.460C123.815,13.912,124.965,15.232,125.595,16.418C126.224,17.604,126.539,18.996,126.539,20.594C126.539,22.676,126.018,24.274,124.977,25.388C123.960,26.502,122.471,27.058,120.510,27.058ZZ" class="ccustom" style="fill: rgb(146, 154, 154); fill-opacity: 1;"/></g><g class="fills"><path d="M134.640,27.058C132.703,27.058,131.226,26.514,130.209,25.424C129.192,24.311,128.684,22.725,128.684,20.667L128.684,1.275L132.679,1.275L132.679,20.957C132.679,21.829,132.848,22.458,133.187,22.846C133.550,23.233,134.059,23.427,134.712,23.427C135.366,23.427,135.862,23.233,136.201,22.846C136.564,22.458,136.746,21.829,136.746,20.957L136.746,1.275L140.595,1.275L140.595,20.667C140.595,22.725,140.087,24.311,139.070,25.424C138.053,26.514,136.576,27.058,134.640,27.058ZZ" class="ccustom" style="fill: rgb(146, 154, 154); fill-opacity: 1;"/></g><g class="fills"><path d="M143.440,1.275L149.142,1.275L151.684,19.468L151.756,19.468L154.299,1.275L160.000,1.275L160.000,26.695L156.223,26.695L156.223,7.448L156.151,7.448L153.245,26.695L149.904,26.695L146.999,7.448L146.927,7.448L146.927,26.695L143.440,26.695L143.440,1.275ZZ" class="ccustom" style="fill: rgb(146, 154, 154); fill-opacity: 1;"/></g><g class="fills"><path d="M0.000,26.695C4.914,26.695,8.898,22.711,8.898,17.797C8.898,12.882,4.914,8.898,0.000,8.898L0.000,15.127C1.474,15.127,2.670,16.322,2.670,17.797C2.670,19.271,1.474,20.466,0.000,20.466L0.000,26.695ZZ" class="ccompli1" style="fill: rgb(146, 154, 154); fill-opacity: 1;"/></g><g class="fills"><path d="M29.661,11.865C28.141,11.383,26.522,11.123,24.841,11.123C16.036,11.123,8.898,18.261,8.898,27.066C8.898,27.950,8.970,28.817,9.109,29.661L19.014,29.661C18.661,28.869,18.464,27.990,18.464,27.066C18.464,23.544,21.319,20.689,24.841,20.689C26.766,20.689,28.492,21.542,29.661,22.890L29.661,11.865ZZ" class="ccompli2" style="fill: rgb(146, 154, 154); fill-opacity: 1;"/></g><g class="fills"><path d="M1.565,0.000C2.302,6.674,7.960,11.865,14.831,11.865C21.701,11.865,27.359,6.674,28.097,0.000L18.551,0.000C17.962,1.477,16.518,2.521,14.831,2.521C13.143,2.521,11.699,1.477,11.110,0.000L1.565,0.000ZZ" class="ccustom" style="fill: rgb(146, 154, 154); fill-opacity: 1;"/></g></g></svg>