<svg width="78" xmlns="http://www.w3.org/2000/svg" height="30" fill="none"><g style="fill: rgb(0, 0, 0);"><g class="fills"><path d="M18.515,0.000C15.469,0.000,12.547,1.210,10.393,3.364L3.364,10.393C1.210,12.547,0.000,15.469,0.000,18.515C0.000,24.858,5.142,30.000,11.485,30.000C14.531,30.000,17.453,28.790,19.607,26.636L24.469,21.774C24.469,21.774,24.469,21.774,24.469,21.774L38.636,7.607C39.665,6.578,41.060,6.000,42.515,6.000C44.950,6.000,47.015,7.587,47.731,9.784L52.202,5.313C50.162,2.118,46.586,0.000,42.515,0.000C39.469,0.000,36.547,1.210,34.393,3.364L15.364,22.393C14.335,23.422,12.940,24.000,11.485,24.000C8.456,24.000,6.000,21.544,6.000,18.515C6.000,17.060,6.578,15.665,7.607,14.636L14.636,7.607C15.665,6.578,17.060,6.000,18.515,6.000C20.950,6.000,23.015,7.587,23.731,9.784L28.202,5.313C26.163,2.118,22.586,0.000,18.515,0.000ZZ" class="ccustom" style="fill: rgb(146, 154, 154); fill-opacity: 1;"/></g><g class="fills"><path d="M39.364,22.393C38.335,23.422,36.940,24.000,35.485,24.000C33.050,24.000,30.985,22.413,30.269,20.217L25.798,24.688C27.838,27.882,31.414,30.000,35.485,30.000C38.531,30.000,41.453,28.790,43.607,26.636L62.636,7.607C63.665,6.578,65.060,6.000,66.515,6.000C69.544,6.000,72.000,8.456,72.000,11.485C72.000,12.940,71.422,14.335,70.393,15.364L63.364,22.393C62.335,23.422,60.940,24.000,59.485,24.000C57.050,24.000,54.985,22.413,54.269,20.216L49.798,24.687C51.838,27.882,55.414,30.000,59.485,30.000C62.531,30.000,65.453,28.790,67.607,26.636L74.636,19.607C76.790,17.453,78.000,14.531,78.000,11.485C78.000,5.142,72.858,0.000,66.515,0.000C63.469,0.000,60.547,1.210,58.393,3.364L39.364,22.393ZZ" class="ccustom" style="fill: rgb(146, 154, 154); fill-opacity: 1;"/></g></g></svg>