<svg width="124" xmlns="http://www.w3.org/2000/svg" height="28" fill="none"><g style="opacity: 1; fill: rgb(0, 0, 0);"><path d="M10.568,19.600C8.623,19.600,7.045,18.033,7.045,16.100L7.045,0.000L0.000,0.000L0.000,16.100C0.000,21.899,4.732,26.600,10.568,26.600L18.318,26.600L18.318,19.600L10.568,19.600ZZM31.705,7.000C28.203,7.000,25.364,9.821,25.364,13.300C25.364,16.779,28.203,19.600,31.705,19.600C35.207,19.600,38.045,16.779,38.045,13.300C38.045,9.821,35.207,7.000,31.705,7.000ZZM18.318,13.300C18.318,5.955,24.312,0.000,31.705,0.000C39.097,0.000,45.091,5.955,45.091,13.300C45.091,20.645,39.097,26.600,31.705,26.600C24.312,26.600,18.318,20.645,18.318,13.300ZZM107.795,7.000C104.293,7.000,101.455,9.821,101.455,13.300C101.455,16.779,104.293,19.600,107.795,19.600C111.297,19.600,114.136,16.779,114.136,13.300C114.136,9.821,111.297,7.000,107.795,7.000ZZM94.409,13.300C94.409,5.955,100.403,0.000,107.795,0.000C115.188,0.000,121.182,5.955,121.182,13.300C121.182,20.645,115.188,26.600,107.795,26.600C100.403,26.600,94.409,20.645,94.409,13.300ZZM59.886,0.000C52.494,0.000,46.500,5.955,46.500,13.300C46.500,20.645,52.494,26.600,59.886,26.600L79.614,26.600C81.001,26.600,82.339,26.390,83.597,26.001L87.364,28.000L91.427,20.437C92.460,18.512,93.000,16.364,93.000,14.183L93.000,13.300C93.000,5.955,87.006,0.000,79.614,0.000L59.886,0.000ZZM85.955,13.300C85.955,9.821,83.116,7.000,79.614,7.000L59.886,7.000C56.384,7.000,53.545,9.821,53.545,13.300C53.545,16.779,56.384,19.600,59.886,19.600L79.614,19.600C83.096,19.600,85.927,16.809,85.955,13.300ZL85.955,13.300ZZ" fill-rule="evenodd" clip-rule="evenodd" style="fill: rgb(146, 154, 154); fill-opacity: 1;" class="fills"/><path d="M124.000,1.750C124.000,2.716,123.211,3.500,122.239,3.500C121.266,3.500,120.477,2.716,120.477,1.750C120.477,0.784,121.266,0.000,122.239,0.000C123.211,0.000,124.000,0.784,124.000,1.750ZZ" style="fill: rgb(146, 154, 154); fill-opacity: 1;" class="fills"/></g></svg>