<svg width="24" xmlns="http://www.w3.org/2000/svg" height="24" fill="none"><g style="fill: rgb(0, 0, 0);"><path d="M23.498,6.186C23.362,5.675,23.095,5.209,22.723,4.834C22.350,4.459,21.886,4.189,21.376,4.050C19.505,3.545,12.000,3.545,12.000,3.545C12.000,3.545,4.495,3.545,2.623,4.050C2.113,4.189,1.649,4.460,1.277,4.834C0.905,5.209,0.638,5.675,0.502,6.186C0.000,8.070,0.000,12.000,0.000,12.000C0.000,12.000,0.000,15.930,0.502,17.814C0.638,18.325,0.905,18.791,1.277,19.166C1.650,19.541,2.114,19.811,2.624,19.950C4.495,20.455,12.000,20.455,12.000,20.455C12.000,20.455,19.505,20.455,21.377,19.950C21.887,19.811,22.351,19.541,22.724,19.166C23.096,18.791,23.363,18.325,23.499,17.814C24.000,15.930,24.000,12.000,24.000,12.000C24.000,12.000,24.000,8.070,23.498,6.186ZZM9.545,15.568L9.545,8.432L15.818,12.000L9.545,15.568ZZ" style="fill: rgb(11, 227, 175); fill-opacity: 1;" class="fills"/></g></svg>